HIERARCHY
ROOT Bone
{
	OFFSET 0.000000 0.000000 0.000000
	CHANNELS 6 Xposition Yposition Zposition Xrotation Yrotation Zrotation
	End Site
	{
		OFFSET 0.000000 0.000000 1.000000
	}
}
MOTION
Frames: 40
Frame Time: 0.041667
0.000000 0.000000 0.000000 -0.000000 0.000000 -0.000000 
0.000000 0.000000 0.000000 0.155509 0.000000 -0.000000 
0.000000 0.000000 0.000000 0.611211 0.000000 -0.000000 
0.000000 0.000000 0.000000 1.350835 0.000000 -0.000000 
0.000000 0.000000 0.000000 2.357991 0.000000 -0.000000 
0.000000 0.000000 0.000000 3.616067 0.000000 -0.000000 
0.000000 0.000000 0.000000 5.108118 0.000000 -0.000000 
0.000000 0.000000 0.000000 6.816753 0.000000 -0.000000 
0.000000 0.000000 0.000000 8.724048 0.000000 -0.000000 
0.000000 0.000000 0.000000 10.811496 0.000000 -0.000000 
0.000000 0.000000 0.000000 13.059981 0.000000 -0.000000 
0.000000 0.000000 0.000000 15.449806 0.000000 -0.000000 
0.000000 0.000000 0.000000 17.960788 0.000000 -0.000000 
0.000000 0.000000 0.000000 20.572349 0.000000 -0.000000 
0.000000 0.000000 0.000000 23.263687 0.000000 -0.000000 
0.000000 0.000000 0.000000 26.013993 0.000000 -0.000000 
0.000000 0.000000 0.000000 28.802658 0.000000 -0.000000 
0.000000 0.000000 0.000000 31.609511 0.000000 -0.000000 
0.000000 0.000000 0.000000 34.414980 0.000000 -0.000000 
0.000000 0.000000 0.000000 37.200434 0.000000 -0.000000 
0.000000 0.000000 0.000000 39.948233 0.000000 -0.000000 
0.000000 0.000000 0.000000 42.641896 0.000000 -0.000000 
0.000000 0.000000 0.000000 45.266307 0.000000 -0.000000 
0.000000 0.000000 0.000000 47.807650 0.000000 -0.000000 
0.000000 0.000000 0.000000 50.253455 0.000000 -0.000000 
0.000000 0.000000 0.000000 52.592590 0.000000 -0.000000 
0.000000 0.000000 0.000000 54.815140 0.000000 -0.000000 
0.000000 0.000000 0.000000 56.912404 0.000000 -0.000000 
0.000000 0.000000 0.000000 58.876599 0.000000 -0.000000 
0.000000 0.000000 0.000000 60.700854 0.000000 -0.000000 
0.000000 0.000000 0.000000 62.379004 0.000000 -0.000000 
0.000000 0.000000 0.000000 63.905319 0.000000 -0.000000 
0.000000 0.000000 0.000000 65.274438 0.000000 -0.000000 
0.000000 0.000000 0.000000 66.481161 0.000000 -0.000000 
0.000000 0.000000 0.000000 67.520183 0.000000 -0.000000 
0.000000 0.000000 0.000000 68.385930 0.000000 -0.000000 
0.000000 0.000000 0.000000 69.072364 0.000000 -0.000000 
0.000000 0.000000 0.000000 69.572805 0.000000 -0.000000 
0.000000 0.000000 0.000000 69.879611 0.000000 -0.000000 
0.000000 0.000000 0.000000 69.984038 0.000000 -0.000000 
